<svg width="1440" height="824" viewBox="0 0 1440 824" fill="none" xmlns="http://www.w3.org/2000/svg">
<path d="M-201 824L-143.7 782.8C-86.4 741.6 28.2 659.2 142.8 659.2C257.4 659.2 372 741.6 486.6 741.6C601.2 741.6 715.8 659.2 830.4 645.552C945 630.875 1059.6 687.525 1174.2 672.847C1288.8 659.2 1403.4 576.8 1460.7 535.6L1518 494.4V824H1460.7C1403.4 824 1288.8 824 1174.2 824C1059.6 824 945 824 830.4 824C715.8 824 601.2 824 486.6 824C372 824 257.4 824 142.8 824C28.2 824 -86.4 824 -143.7 824H-201Z" fill="#4581F6"/>
<path d="M575.28 764.605C577.94 764.605 580.239 765.107 582.175 766.11C584.135 767.09 585.629 768.502 586.655 770.345C587.705 772.188 588.23 774.358 588.23 776.855C588.23 779.352 587.705 781.522 586.655 783.365C585.629 785.185 584.135 786.585 582.175 787.565C580.239 788.522 577.94 789 575.28 789H567.685V764.605H575.28ZM575.28 786.375C578.43 786.375 580.834 785.547 582.49 783.89C584.147 782.21 584.975 779.865 584.975 776.855C584.975 773.822 584.135 771.453 582.455 769.75C580.799 768.047 578.407 767.195 575.28 767.195H570.87V786.375H575.28ZM611.857 778.675C611.857 779.282 611.822 779.923 611.752 780.6H596.422C596.538 782.49 597.18 783.972 598.347 785.045C599.537 786.095 600.972 786.62 602.652 786.62C604.028 786.62 605.172 786.305 606.082 785.675C607.015 785.022 607.668 784.158 608.042 783.085H611.472C610.958 784.928 609.932 786.433 608.392 787.6C606.852 788.743 604.938 789.315 602.652 789.315C600.832 789.315 599.198 788.907 597.752 788.09C596.328 787.273 595.208 786.118 594.392 784.625C593.575 783.108 593.167 781.358 593.167 779.375C593.167 777.392 593.563 775.653 594.357 774.16C595.15 772.667 596.258 771.523 597.682 770.73C599.128 769.913 600.785 769.505 602.652 769.505C604.472 769.505 606.082 769.902 607.482 770.695C608.882 771.488 609.955 772.585 610.702 773.985C611.472 775.362 611.857 776.925 611.857 778.675ZM608.567 778.01C608.567 776.797 608.298 775.758 607.762 774.895C607.225 774.008 606.49 773.343 605.557 772.9C604.647 772.433 603.632 772.2 602.512 772.2C600.902 772.2 599.525 772.713 598.382 773.74C597.262 774.767 596.62 776.19 596.457 778.01H608.567ZM624.776 789.315C623.306 789.315 621.987 789.07 620.821 788.58C619.654 788.067 618.732 787.367 618.056 786.48C617.379 785.57 617.006 784.532 616.936 783.365H620.226C620.319 784.322 620.762 785.103 621.556 785.71C622.372 786.317 623.434 786.62 624.741 786.62C625.954 786.62 626.911 786.352 627.611 785.815C628.311 785.278 628.661 784.602 628.661 783.785C628.661 782.945 628.287 782.327 627.541 781.93C626.794 781.51 625.639 781.102 624.076 780.705C622.652 780.332 621.486 779.958 620.576 779.585C619.689 779.188 618.919 778.617 618.266 777.87C617.636 777.1 617.321 776.097 617.321 774.86C617.321 773.88 617.612 772.982 618.196 772.165C618.779 771.348 619.607 770.707 620.681 770.24C621.754 769.75 622.979 769.505 624.356 769.505C626.479 769.505 628.194 770.042 629.501 771.115C630.807 772.188 631.507 773.658 631.601 775.525H628.416C628.346 774.522 627.937 773.717 627.191 773.11C626.467 772.503 625.487 772.2 624.251 772.2C623.107 772.2 622.197 772.445 621.521 772.935C620.844 773.425 620.506 774.067 620.506 774.86C620.506 775.49 620.704 776.015 621.101 776.435C621.521 776.832 622.034 777.158 622.641 777.415C623.271 777.648 624.134 777.917 625.231 778.22C626.607 778.593 627.727 778.967 628.591 779.34C629.454 779.69 630.189 780.227 630.796 780.95C631.426 781.673 631.752 782.618 631.776 783.785C631.776 784.835 631.484 785.78 630.901 786.62C630.317 787.46 629.489 788.125 628.416 788.615C627.366 789.082 626.152 789.315 624.776 789.315ZM639.842 766.705C639.235 766.705 638.722 766.495 638.302 766.075C637.882 765.655 637.672 765.142 637.672 764.535C637.672 763.928 637.882 763.415 638.302 762.995C638.722 762.575 639.235 762.365 639.842 762.365C640.425 762.365 640.915 762.575 641.312 762.995C641.732 763.415 641.942 763.928 641.942 764.535C641.942 765.142 641.732 765.655 641.312 766.075C640.915 766.495 640.425 766.705 639.842 766.705ZM641.382 769.82V789H638.197V769.82H641.382ZM656.645 769.505C658.302 769.505 659.748 769.867 660.985 770.59C662.245 771.313 663.178 772.223 663.785 773.32V769.82H667.005V789.42C667.005 791.17 666.632 792.722 665.885 794.075C665.138 795.452 664.065 796.525 662.665 797.295C661.288 798.065 659.678 798.45 657.835 798.45C655.315 798.45 653.215 797.855 651.535 796.665C649.855 795.475 648.863 793.853 648.56 791.8H651.71C652.06 792.967 652.783 793.9 653.88 794.6C654.977 795.323 656.295 795.685 657.835 795.685C659.585 795.685 661.008 795.137 662.105 794.04C663.225 792.943 663.785 791.403 663.785 789.42V785.395C663.155 786.515 662.222 787.448 660.985 788.195C659.748 788.942 658.302 789.315 656.645 789.315C654.942 789.315 653.39 788.895 651.99 788.055C650.613 787.215 649.528 786.037 648.735 784.52C647.942 783.003 647.545 781.277 647.545 779.34C647.545 777.38 647.942 775.665 648.735 774.195C649.528 772.702 650.613 771.547 651.99 770.73C653.39 769.913 654.942 769.505 656.645 769.505ZM663.785 779.375C663.785 777.928 663.493 776.668 662.91 775.595C662.327 774.522 661.533 773.705 660.53 773.145C659.55 772.562 658.465 772.27 657.275 772.27C656.085 772.27 655 772.55 654.02 773.11C653.04 773.67 652.258 774.487 651.675 775.56C651.092 776.633 650.8 777.893 650.8 779.34C650.8 780.81 651.092 782.093 651.675 783.19C652.258 784.263 653.04 785.092 654.02 785.675C655 786.235 656.085 786.515 657.275 786.515C658.465 786.515 659.55 786.235 660.53 785.675C661.533 785.092 662.327 784.263 662.91 783.19C663.493 782.093 663.785 780.822 663.785 779.375ZM683.657 769.47C685.991 769.47 687.881 770.182 689.327 771.605C690.774 773.005 691.497 775.035 691.497 777.695V789H688.347V778.15C688.347 776.237 687.869 774.778 686.912 773.775C685.956 772.748 684.649 772.235 682.992 772.235C681.312 772.235 679.971 772.76 678.967 773.81C677.987 774.86 677.497 776.388 677.497 778.395V789H674.312V769.82H677.497V772.55C678.127 771.57 678.979 770.812 680.052 770.275C681.149 769.738 682.351 769.47 683.657 769.47ZM722.096 776.435C722.983 776.575 723.788 776.937 724.511 777.52C725.258 778.103 725.841 778.827 726.261 779.69C726.704 780.553 726.926 781.475 726.926 782.455C726.926 783.692 726.611 784.812 725.981 785.815C725.351 786.795 724.429 787.577 723.216 788.16C722.026 788.72 720.614 789 718.981 789H709.881V764.605H718.631C720.288 764.605 721.699 764.885 722.866 765.445C724.033 765.982 724.908 766.717 725.491 767.65C726.074 768.583 726.366 769.633 726.366 770.8C726.366 772.247 725.969 773.448 725.176 774.405C724.406 775.338 723.379 776.015 722.096 776.435ZM713.066 775.14H718.421C719.914 775.14 721.069 774.79 721.886 774.09C722.703 773.39 723.111 772.422 723.111 771.185C723.111 769.948 722.703 768.98 721.886 768.28C721.069 767.58 719.891 767.23 718.351 767.23H713.066V775.14ZM718.701 786.375C720.288 786.375 721.524 786.002 722.411 785.255C723.298 784.508 723.741 783.47 723.741 782.14C723.741 780.787 723.274 779.725 722.341 778.955C721.408 778.162 720.159 777.765 718.596 777.765H713.066V786.375H718.701ZM749.791 769.82L738.241 798.03H734.951L738.731 788.79L730.996 769.82H734.531L740.551 785.36L746.501 769.82H749.791ZM779.019 789L773.209 779.025H769.359V789H766.174V764.605H774.049C775.892 764.605 777.444 764.92 778.704 765.55C779.987 766.18 780.944 767.032 781.574 768.105C782.204 769.178 782.519 770.403 782.519 771.78C782.519 773.46 782.029 774.942 781.049 776.225C780.092 777.508 778.645 778.36 776.709 778.78L782.834 789H779.019ZM769.359 776.47H774.049C775.775 776.47 777.07 776.05 777.934 775.21C778.797 774.347 779.229 773.203 779.229 771.78C779.229 770.333 778.797 769.213 777.934 768.42C777.094 767.627 775.799 767.23 774.049 767.23H769.359V776.47ZM788.203 779.34C788.203 777.38 788.599 775.665 789.393 774.195C790.186 772.702 791.271 771.547 792.648 770.73C794.048 769.913 795.599 769.505 797.303 769.505C798.983 769.505 800.441 769.867 801.678 770.59C802.914 771.313 803.836 772.223 804.443 773.32V769.82H807.663V789H804.443V785.43C803.813 786.55 802.868 787.483 801.608 788.23C800.371 788.953 798.924 789.315 797.268 789.315C795.564 789.315 794.024 788.895 792.648 788.055C791.271 787.215 790.186 786.037 789.393 784.52C788.599 783.003 788.203 781.277 788.203 779.34ZM804.443 779.375C804.443 777.928 804.151 776.668 803.568 775.595C802.984 774.522 802.191 773.705 801.188 773.145C800.208 772.562 799.123 772.27 797.933 772.27C796.743 772.27 795.658 772.55 794.678 773.11C793.698 773.67 792.916 774.487 792.333 775.56C791.749 776.633 791.458 777.893 791.458 779.34C791.458 780.81 791.749 782.093 792.333 783.19C792.916 784.263 793.698 785.092 794.678 785.675C795.658 786.235 796.743 786.515 797.933 786.515C799.123 786.515 800.208 786.235 801.188 785.675C802.191 785.092 802.984 784.263 803.568 783.19C804.151 782.093 804.443 780.822 804.443 779.375ZM831.98 769.82V789H828.795V786.165C828.188 787.145 827.337 787.915 826.24 788.475C825.167 789.012 823.977 789.28 822.67 789.28C821.177 789.28 819.835 788.977 818.645 788.37C817.455 787.74 816.51 786.807 815.81 785.57C815.133 784.333 814.795 782.828 814.795 781.055V769.82H817.945V780.635C817.945 782.525 818.423 783.983 819.38 785.01C820.337 786.013 821.643 786.515 823.3 786.515C825.003 786.515 826.345 785.99 827.325 784.94C828.305 783.89 828.795 782.362 828.795 780.355V769.82H831.98ZM842.468 763.1V789H839.283V763.1H842.468ZM851.466 766.705C850.859 766.705 850.346 766.495 849.926 766.075C849.506 765.655 849.296 765.142 849.296 764.535C849.296 763.928 849.506 763.415 849.926 762.995C850.346 762.575 850.859 762.365 851.466 762.365C852.049 762.365 852.539 762.575 852.936 762.995C853.356 763.415 853.566 763.928 853.566 764.535C853.566 765.142 853.356 765.655 852.936 766.075C852.539 766.495 852.049 766.705 851.466 766.705ZM853.006 769.82V789H849.821V769.82H853.006ZM859.169 779.34C859.169 777.38 859.566 775.665 860.359 774.195C861.153 772.702 862.238 771.547 863.614 770.73C865.014 769.913 866.578 769.505 868.304 769.505C869.961 769.505 871.408 769.878 872.644 770.625C873.904 771.348 874.826 772.247 875.409 773.32V769.82H878.629V798.1H875.409V785.465C874.803 786.538 873.869 787.448 872.609 788.195C871.349 788.942 869.879 789.315 868.199 789.315C866.519 789.315 864.991 788.895 863.614 788.055C862.238 787.215 861.153 786.037 860.359 784.52C859.566 783.003 859.169 781.277 859.169 779.34ZM875.409 779.375C875.409 777.928 875.118 776.668 874.534 775.595C873.951 774.522 873.158 773.705 872.154 773.145C871.174 772.562 870.089 772.27 868.899 772.27C867.709 772.27 866.624 772.55 865.644 773.11C864.664 773.67 863.883 774.487 863.299 775.56C862.716 776.633 862.424 777.893 862.424 779.34C862.424 780.81 862.716 782.093 863.299 783.19C863.883 784.263 864.664 785.092 865.644 785.675C866.624 786.235 867.709 786.515 868.899 786.515C870.089 786.515 871.174 786.235 872.154 785.675C873.158 785.092 873.951 784.263 874.534 783.19C875.118 782.093 875.409 780.822 875.409 779.375ZM889.122 773.39C889.775 772.247 890.732 771.313 891.992 770.59C893.252 769.867 894.687 769.505 896.297 769.505C898.023 769.505 899.575 769.913 900.952 770.73C902.328 771.547 903.413 772.702 904.207 774.195C905 775.665 905.397 777.38 905.397 779.34C905.397 781.277 905 783.003 904.207 784.52C903.413 786.037 902.317 787.215 900.917 788.055C899.54 788.895 898 789.315 896.297 789.315C894.64 789.315 893.182 788.953 891.922 788.23C890.685 787.507 889.752 786.585 889.122 785.465V789H885.937V763.1H889.122V773.39ZM902.142 779.34C902.142 777.893 901.85 776.633 901.267 775.56C900.683 774.487 899.89 773.67 898.887 773.11C897.907 772.55 896.822 772.27 895.632 772.27C894.465 772.27 893.38 772.562 892.377 773.145C891.397 773.705 890.603 774.533 889.997 775.63C889.413 776.703 889.122 777.952 889.122 779.375C889.122 780.822 889.413 782.093 889.997 783.19C890.603 784.263 891.397 785.092 892.377 785.675C893.38 786.235 894.465 786.515 895.632 786.515C896.822 786.515 897.907 786.235 898.887 785.675C899.89 785.092 900.683 784.263 901.267 783.19C901.85 782.093 902.142 780.81 902.142 779.34ZM910.324 779.34C910.324 777.38 910.721 775.665 911.514 774.195C912.307 772.702 913.392 771.547 914.769 770.73C916.169 769.913 917.721 769.505 919.424 769.505C921.104 769.505 922.562 769.867 923.799 770.59C925.036 771.313 925.957 772.223 926.564 773.32V769.82H929.784V789H926.564V785.43C925.934 786.55 924.989 787.483 923.729 788.23C922.492 788.953 921.046 789.315 919.389 789.315C917.686 789.315 916.146 788.895 914.769 788.055C913.392 787.215 912.307 786.037 911.514 784.52C910.721 783.003 910.324 781.277 910.324 779.34ZM926.564 779.375C926.564 777.928 926.272 776.668 925.689 775.595C925.106 774.522 924.312 773.705 923.309 773.145C922.329 772.562 921.244 772.27 920.054 772.27C918.864 772.27 917.779 772.55 916.799 773.11C915.819 773.67 915.037 774.487 914.454 775.56C913.871 776.633 913.579 777.893 913.579 779.34C913.579 780.81 913.871 782.093 914.454 783.19C915.037 784.263 915.819 785.092 916.799 785.675C917.779 786.235 918.864 786.515 920.054 786.515C921.244 786.515 922.329 786.235 923.309 785.675C924.312 785.092 925.106 784.263 925.689 783.19C926.272 782.093 926.564 780.822 926.564 779.375ZM940.276 763.1V789H937.091V763.1H940.276Z" fill="white"/>
</svg>
